<?xml version="1.0" encoding="UTF-8"?>
<!DOCTYPE svg PUBLIC "-//W3C//DTD SVG 1.1//EN" "http://www.w3.org/Graphics/SVG/1.1/DTD/svg11.dtd">
<svg xmlns="http://www.w3.org/2000/svg" version="1.1" width="512px" height="512px" style="shape-rendering:geometricPrecision; text-rendering:geometricPrecision; image-rendering:optimizeQuality; fill-rule:evenodd; clip-rule:evenodd" xmlns:xlink="http://www.w3.org/1999/xlink">
<g><path style="opacity:0.973" fill="#fefffe" d="M 511.5,100.5 C 511.5,203.833 511.5,307.167 511.5,410.5C 505.786,430.372 492.786,442.538 472.5,447C 327.833,447.667 183.167,447.667 38.5,447C 18.2024,442.533 5.20236,430.366 -0.5,410.5C -0.5,307.167 -0.5,203.833 -0.5,100.5C 5.20236,80.6336 18.2024,68.4669 38.5,64C 183.167,63.3333 327.833,63.3333 472.5,64C 492.786,68.4616 505.786,80.6282 511.5,100.5 Z M 41.5,94.5 C 183.834,94.3333 326.167,94.5 468.5,95C 478.172,98.5072 482.005,105.34 480,115.5C 478.939,118.562 477.106,121.062 474.5,123C 404.5,169.667 334.5,216.333 264.5,263C 258.5,266.333 252.5,266.333 246.5,263C 176.5,216.333 106.5,169.667 36.5,123C 27.2577,111.593 28.9243,102.093 41.5,94.5 Z M 29.5,156.5 C 95.6147,200.065 161.615,243.898 227.5,288C 246.167,299.333 264.833,299.333 283.5,288C 349.167,244.167 414.833,200.333 480.5,156.5C 481.667,237.498 481.833,318.498 481,399.5C 480.608,407.888 476.442,413.388 468.5,416C 326.5,416.667 184.5,416.667 42.5,416C 34.5582,413.388 30.3916,407.888 30,399.5C 29.5,318.501 29.3333,237.501 29.5,156.5 Z"/></g>
</svg>
