<?xml version="1.0" encoding="UTF-8"?>
<!DOCTYPE svg PUBLIC "-//W3C//DTD SVG 1.1//EN" "http://www.w3.org/Graphics/SVG/1.1/DTD/svg11.dtd">
<svg xmlns="http://www.w3.org/2000/svg" version="1.1" width="512px" height="512px" style="shape-rendering:geometricPrecision; text-rendering:geometricPrecision; image-rendering:optimizeQuality; fill-rule:evenodd; clip-rule:evenodd" xmlns:xlink="http://www.w3.org/1999/xlink">
<g><path style="opacity:0.981" fill="#fefffe" d="M 52.5,-0.5 C 58.1667,-0.5 63.8333,-0.5 69.5,-0.5C 107.701,8.87676 125.201,33.2101 122,72.5C 114.311,104.524 93.9778,121.524 61,123.5C 27.9408,121.416 7.44076,104.416 -0.5,72.5C -0.5,65.1667 -0.5,57.8333 -0.5,50.5C 6.36368,22.3035 24.0303,5.30346 52.5,-0.5 Z"/></g>
<g><path style="opacity:0.99" fill="#fefffe" d="M 511.5,291.5 C 511.5,364.833 511.5,438.167 511.5,511.5C 475.833,511.5 440.167,511.5 404.5,511.5C 404.667,445.832 404.5,380.166 404,314.5C 401.151,267.952 376.984,248.786 331.5,257C 308.969,263.534 295.469,278.368 291,301.5C 289.566,308.102 288.566,314.768 288,321.5C 287.5,384.832 287.333,448.166 287.5,511.5C 251.833,511.5 216.167,511.5 180.5,511.5C 180.5,397.5 180.5,283.5 180.5,169.5C 214.5,169.5 248.5,169.5 282.5,169.5C 282.333,184.837 282.5,200.17 283,215.5C 306.869,178.562 341.036,160.229 385.5,160.5C 410.912,160.021 434.912,165.521 457.5,177C 483.144,194.069 498.977,217.902 505,248.5C 508.06,262.849 510.227,277.182 511.5,291.5 Z"/></g>
<g><path style="opacity:0.99" fill="#fefffe" d="M 114.5,511.5 C 78.8333,511.5 43.1667,511.5 7.5,511.5C 7.5,397.5 7.5,283.5 7.5,169.5C 43.1667,169.5 78.8333,169.5 114.5,169.5C 114.5,283.5 114.5,397.5 114.5,511.5 Z"/></g>
</svg>
