<?xml version="1.0" encoding="UTF-8"?>
<!DOCTYPE svg PUBLIC "-//W3C//DTD SVG 1.1//EN" "http://www.w3.org/Graphics/SVG/1.1/DTD/svg11.dtd">
<svg xmlns="http://www.w3.org/2000/svg" version="1.1" width="512px" height="512px" style="shape-rendering:geometricPrecision; text-rendering:geometricPrecision; image-rendering:optimizeQuality; fill-rule:evenodd; clip-rule:evenodd" xmlns:xlink="http://www.w3.org/1999/xlink">
<g><path style="opacity:0.961" fill="#fefffe" d="M 236.5,-0.5 C 249.167,-0.5 261.833,-0.5 274.5,-0.5C 345.906,9.78663 395.739,48.12 424,114.5C 438.624,156.897 439.291,199.564 426,242.5C 412.873,281.751 395.206,318.751 373,353.5C 363.916,368.004 354.582,382.337 345,396.5C 319.754,431.992 294.754,467.658 270,503.5C 267.843,506.976 265.01,509.643 261.5,511.5C 257.5,511.5 253.5,511.5 249.5,511.5C 245.99,509.643 243.157,506.976 241,503.5C 216.246,467.658 191.246,431.992 166,396.5C 140.622,359.763 118.288,321.096 99,280.5C 88.4339,256.801 81.1006,232.134 77,206.5C 68.7584,125.153 99.2584,63.3198 168.5,21C 190.01,9.79615 212.677,2.62948 236.5,-0.5 Z M 254.5,29.5 C 317.895,32.4529 363.729,62.1195 392,118.5C 403.891,145.743 407.558,174.076 403,203.5C 396.155,238.032 384.155,270.699 367,301.5C 351.919,328.672 335.586,355.005 318,380.5C 297.361,409.972 276.528,439.306 255.5,468.5C 223.433,424.704 192.599,380.037 163,334.5C 143.873,303.911 128.206,271.577 116,237.5C 95.5103,177.061 106.177,123.061 148,75.5C 177.582,46.4724 213.082,31.139 254.5,29.5 Z M 254.5,119.5 C 283.942,121.632 303.442,136.632 313,164.5C 318.84,195.983 307.674,219.15 279.5,234C 247.166,244.889 221.666,236.055 203,207.5C 189.214,173.864 197.381,147.03 227.5,127C 236.162,122.755 245.162,120.255 254.5,119.5 Z"/></g>
<g><path style="opacity:0.961" fill="#fefffe" d="M 241.5,89.5 C 279.74,85.9456 309.907,99.6123 332,130.5C 346.911,156.572 349.578,183.906 340,212.5C 326.626,243.866 303.126,262.699 269.5,269C 231.242,273.045 201.076,259.545 179,228.5C 164.089,202.428 161.422,175.094 171,146.5C 184.541,115.121 208.041,96.1211 241.5,89.5 Z M 254.5,119.5 C 245.162,120.255 236.162,122.755 227.5,127C 197.381,147.03 189.214,173.864 203,207.5C 221.666,236.055 247.166,244.889 279.5,234C 307.674,219.15 318.84,195.983 313,164.5C 303.442,136.632 283.942,121.632 254.5,119.5 Z"/></g>
</svg>
