<?xml version="1.0" encoding="UTF-8"?>
<!DOCTYPE svg PUBLIC "-//W3C//DTD SVG 1.1//EN" "http://www.w3.org/Graphics/SVG/1.1/DTD/svg11.dtd">
<svg xmlns="http://www.w3.org/2000/svg" version="1.1" width="512px" height="512px" style="shape-rendering:geometricPrecision; text-rendering:geometricPrecision; image-rendering:optimizeQuality; fill-rule:evenodd; clip-rule:evenodd" xmlns:xlink="http://www.w3.org/1999/xlink">
<g><path style="opacity:0.955" fill="#fefffe" d="M 92.5,-0.5 C 99.1667,-0.5 105.833,-0.5 112.5,-0.5C 117.923,1.14836 123.256,3.31502 128.5,6C 133.014,9.09117 137.347,12.4245 141.5,16C 166.059,39.8914 189.893,64.3914 213,89.5C 227.064,114.313 224.064,136.98 204,157.5C 191.804,170.03 179.304,182.196 166.5,194C 179.502,220.839 196.336,245.006 217,266.5C 240.476,292.109 266.642,314.276 295.5,333C 302.114,336.891 308.948,340.391 316,343.5C 329.792,330.709 343.292,317.542 356.5,304C 378.435,285.879 401.102,284.879 424.5,301C 449,325.5 473.5,350 498,374.5C 505.881,384.243 510.381,395.243 511.5,407.5C 511.5,408.167 511.5,408.833 511.5,409.5C 510.563,420.8 506.73,431.133 500,440.5C 483.833,457.333 467.667,474.167 451.5,491C 438.418,502.211 423.418,509.044 406.5,511.5C 396.833,511.5 387.167,511.5 377.5,511.5C 346.55,506.908 316.883,497.742 288.5,484C 188.809,435.559 109.976,364.059 52,269.5C 28.0835,230.754 11.4168,189.087 2,144.5C 1.07796,135.691 0.244622,127.024 -0.5,118.5C -0.5,117.833 -0.5,117.167 -0.5,116.5C -0.0364141,96.6107 6.13025,78.6107 18,62.5C 35.5314,43.3015 54.0314,25.1349 73.5,8C 79.6973,4.56207 86.0307,1.72874 92.5,-0.5 Z M 96.5,26.5 C 101.599,26.1746 106.599,26.6746 111.5,28C 115.11,29.944 118.443,32.2774 121.5,35C 142.667,56.1667 163.833,77.3333 185,98.5C 196.413,109.702 197.413,121.702 188,134.5C 173.971,148.863 159.638,162.863 145,176.5C 142.497,179.502 140.497,182.835 139,186.5C 138.333,190.167 138.333,193.833 139,197.5C 145.917,215.337 154.917,232.004 166,247.5C 197.373,289.876 234.873,325.709 278.5,355C 288.5,360.333 298.5,365.667 308.5,371C 317.287,373.94 325.287,372.606 332.5,367C 348.56,350.271 365.227,334.271 382.5,319C 391.057,315.444 399.057,316.444 406.5,322C 430.333,345.833 454.167,369.667 478,393.5C 484.915,403.252 485.249,413.252 479,423.5C 462.808,440.692 446.308,457.525 429.5,474C 416.535,482.825 402.201,486.492 386.5,485C 364.023,482.964 342.356,477.631 321.5,469C 197.848,414.681 107.014,326.515 49,204.5C 36.1768,177.206 28.6768,148.54 26.5,118.5C 26.6287,104.951 30.4621,92.6175 38,81.5C 53.4709,65.0285 69.3043,48.8619 85.5,33C 89.0961,30.5394 92.7627,28.3727 96.5,26.5 Z"/></g>
</svg>
