<?xml version="1.0" encoding="UTF-8"?>
<!DOCTYPE svg PUBLIC "-//W3C//DTD SVG 1.1//EN" "http://www.w3.org/Graphics/SVG/1.1/DTD/svg11.dtd">
<svg xmlns="http://www.w3.org/2000/svg" version="1.1" width="512px" height="512px" style="shape-rendering:geometricPrecision; text-rendering:geometricPrecision; image-rendering:optimizeQuality; fill-rule:evenodd; clip-rule:evenodd" xmlns:xlink="http://www.w3.org/1999/xlink">
<g><path style="opacity:0.979" fill="#fefffe" d="M 237.5,-0.5 C 252.5,-0.5 267.5,-0.5 282.5,-0.5C 378.985,11.4854 448.485,61.1521 491,148.5C 501.775,173.939 508.609,200.273 511.5,227.5C 511.5,241.833 511.5,256.167 511.5,270.5C 499.715,363.947 452.049,432.113 368.5,475C 291.67,508.714 215.67,506.881 140.5,469.5C 96.9967,483.336 53.6633,497.336 10.5,511.5C 7.83333,511.5 5.16667,511.5 2.5,511.5C 1.83333,510.167 0.833333,509.167 -0.5,508.5C -0.5,505.833 -0.5,503.167 -0.5,500.5C 13.9991,459.006 28.3325,417.339 42.5,375.5C 8.07109,314.66 -0.428914,250.326 17,182.5C 42.1795,101.319 94.3462,45.1521 173.5,14C 194.465,6.91059 215.798,2.07726 237.5,-0.5 Z M 239.5,52.5 C 315.916,47.9685 377.082,75.9685 423,136.5C 465.851,202.834 469.851,271.501 435,342.5C 395.845,408.1 337.845,442.767 261,446.5C 236.076,446.041 211.91,441.541 188.5,433C 174.294,426.396 160.294,419.563 146.5,412.5C 124.22,419.205 102.053,426.205 80,433.5C 86.5978,412.035 93.4312,390.535 100.5,369C 100.091,366.679 99.2572,364.513 98,362.5C 57.8665,302.965 50.8665,239.632 77,172.5C 102.617,117.052 144.451,79.7187 202.5,60.5C 214.806,57.0411 227.139,54.3744 239.5,52.5 Z"/></g>
<g><path style="opacity:0.98" fill="#fefffe" d="M 184.5,131.5 C 193.39,129.958 200.557,132.625 206,139.5C 214.218,157.268 221.884,175.268 229,193.5C 230.462,200.431 229.128,206.764 225,212.5C 220.21,218.959 215.043,225.126 209.5,231C 230.249,262.417 257.749,285.917 292,301.5C 300.211,292.291 308.044,282.791 315.5,273C 322.446,269.778 329.446,269.778 336.5,273C 351.833,280.333 367.167,287.667 382.5,295C 391.098,300.5 393.932,308.333 391,318.5C 390.142,330.087 385.975,340.254 378.5,349C 368.644,357.929 357.31,364.263 344.5,368C 326.429,370.823 308.763,369.156 291.5,363C 248.312,350.165 212.145,326.665 183,292.5C 170.02,276.54 158.02,259.873 147,242.5C 131.173,214.933 129.506,186.599 142,157.5C 151.242,140.795 165.409,132.129 184.5,131.5 Z"/></g>
</svg>
