<?xml version="1.0" encoding="UTF-8"?>
<!DOCTYPE svg PUBLIC "-//W3C//DTD SVG 1.1//EN" "http://www.w3.org/Graphics/SVG/1.1/DTD/svg11.dtd">
<svg xmlns="http://www.w3.org/2000/svg" version="1.1" width="512px" height="512px" style="shape-rendering:geometricPrecision; text-rendering:geometricPrecision; image-rendering:optimizeQuality; fill-rule:evenodd; clip-rule:evenodd" xmlns:xlink="http://www.w3.org/1999/xlink">
<g><path style="opacity:0.993" fill="#fefffe" d="M 204.5,82.5 C 250.509,82.2534 296.509,82.7534 342.5,84C 368.898,84.6702 395.231,86.3369 421.5,89C 449.608,89.4524 470.108,101.952 483,126.5C 487.793,141.131 490.793,156.131 492,171.5C 496.667,223.833 496.667,276.167 492,328.5C 490.986,339.931 489.319,351.265 487,362.5C 481.961,385.872 468.127,401.372 445.5,409C 431.341,412.213 417.007,414.213 402.5,415C 316.203,420.089 229.87,420.756 143.5,417C 117.606,416.37 91.9395,413.704 66.5,409C 38.1938,398.95 23.0271,378.783 21,348.5C 11.6618,278.002 12.6618,207.669 24,137.5C 30.4016,114.098 45.235,98.9316 68.5,92C 81.3879,89.4778 94.3879,87.8111 107.5,87C 139.972,85.0344 172.305,83.5344 204.5,82.5 Z M 207.5,180.5 C 248.941,203.723 290.275,227.223 331.5,251C 290.5,274.5 249.5,298 208.5,321.5C 207.5,274.505 207.167,227.505 207.5,180.5 Z"/></g>
</svg>
