<?xml version="1.0" encoding="UTF-8"?>
<!DOCTYPE svg PUBLIC "-//W3C//DTD SVG 1.1//EN" "http://www.w3.org/Graphics/SVG/1.1/DTD/svg11.dtd">
<svg xmlns="http://www.w3.org/2000/svg" version="1.1" width="512px" height="512px" style="shape-rendering:geometricPrecision; text-rendering:geometricPrecision; image-rendering:optimizeQuality; fill-rule:evenodd; clip-rule:evenodd" xmlns:xlink="http://www.w3.org/1999/xlink">
<g><path style="opacity:0.961" fill="#fdfffc" d="M 247.5,-0.5 C 256.5,-0.5 265.5,-0.5 274.5,-0.5C 300.87,4.69537 319.37,19.6954 330,44.5C 334.215,54.4785 337.215,64.8118 339,75.5C 341.192,94.1004 342.526,112.767 343,131.5C 343.468,147.046 347.801,161.38 356,174.5C 373.408,198.312 390.075,222.646 406,247.5C 416.167,263.834 424.167,281.168 430,299.5C 433.534,318.668 432.7,337.668 427.5,356.5C 429.04,360.213 431.207,363.547 434,366.5C 435.725,369.674 437.058,373.007 438,376.5C 438.564,383.579 439.564,390.579 441,397.5C 442.986,402.496 446.153,406.663 450.5,410C 457.75,413.539 464.583,417.706 471,422.5C 475.991,432.542 474.158,441.375 465.5,449C 443.003,461.748 420.669,474.748 398.5,488C 391.54,493.292 384.873,498.958 378.5,505C 373.71,507.867 368.71,510.033 363.5,511.5C 357.167,511.5 350.833,511.5 344.5,511.5C 333.585,507.76 325.585,500.593 320.5,490C 281.78,481.351 243.114,481.684 204.5,491C 196.381,504.725 184.381,510.392 168.5,508C 163.766,507.317 159.1,506.317 154.5,505C 137.833,499.333 121.167,493.667 104.5,488C 88.8333,485 73.1667,482 57.5,479C 49.379,477.199 42.879,473.033 38,466.5C 37.3333,462.833 37.3333,459.167 38,455.5C 41.4392,446.409 43.9392,437.076 45.5,427.5C 43.8292,419.491 42.1625,411.491 40.5,403.5C 40.3733,395.462 44.04,389.962 51.5,387C 58.7455,384.689 66.0789,382.689 73.5,381C 85.5779,376.589 94.0779,368.423 99,356.5C 101.371,353.794 104.037,351.461 107,349.5C 105.142,340.902 105.142,332.236 107,323.5C 118.117,297.483 128.451,271.149 138,244.5C 141.6,237.243 145.6,230.243 150,223.5C 162.053,207.78 173.72,191.78 185,175.5C 185.794,172.529 186.461,169.529 187,166.5C 188.3,141.482 187.633,116.482 185,91.5C 183.172,72.2784 185.506,53.6117 192,35.5C 200.27,19.5752 213.104,9.07523 230.5,4C 236.276,2.4194 241.942,0.919399 247.5,-0.5 Z M 263.5,112.5 C 257.907,112.389 254.407,109.722 253,104.5C 249.75,88.1779 255.25,76.0112 269.5,68C 285.02,65.529 294.853,72.029 299,87.5C 302.158,101.027 298.658,112.527 288.5,122C 286.165,122.507 284.165,121.84 282.5,120C 290.372,111.838 291.539,102.671 286,92.5C 278.216,85.375 271.216,86.0417 265,94.5C 262.356,100.317 261.856,106.317 263.5,112.5 Z M 209.5,71.5 C 219.888,72.0332 226.721,77.3665 230,87.5C 231.664,94.1251 231.831,100.792 230.5,107.5C 227.497,108.666 224.83,110.333 222.5,112.5C 223.41,105.539 221.91,98.8719 218,92.5C 212.924,87.244 207.924,87.244 203,92.5C 198.701,102.366 200.201,111.199 207.5,119C 209.087,119.862 210.754,120.529 212.5,121C 210.667,122.833 208.833,124.667 207,126.5C 198.426,119.853 193.926,111.02 193.5,100C 193.596,87.2851 198.929,77.7851 209.5,71.5 Z M 239.5,118.5 C 254.673,122.584 269.34,128.084 283.5,135C 287.408,137.048 288.241,139.881 286,143.5C 271.367,152.901 256.201,161.401 240.5,169C 235.72,170.03 231.387,169.03 227.5,166C 219.034,160.864 211.867,154.364 206,146.5C 205.333,145.167 205.333,143.833 206,142.5C 213.258,136.786 220.425,130.953 227.5,125C 231.434,122.536 235.434,120.369 239.5,118.5 Z M 294.5,153.5 C 295.552,153.351 296.552,153.517 297.5,154C 319.615,194.404 337.782,236.571 352,280.5C 358.909,305.07 359.242,329.737 353,354.5C 348.701,354.458 344.201,354.625 339.5,355C 336.804,355.69 334.637,357.19 333,359.5C 331.97,363.773 331.303,368.106 331,372.5C 330.629,386.515 329.962,400.515 329,414.5C 302.654,446.319 268.654,460.319 227,456.5C 221.848,455.862 216.681,455.362 211.5,455C 204.223,447.052 196.89,439.052 189.5,431C 203.588,426.085 207.088,416.918 200,403.5C 188.148,392.168 175.648,381.668 162.5,372C 155.593,365.764 149.427,358.931 144,351.5C 138.401,330.086 139.734,309.086 148,288.5C 152.772,280.059 157.106,271.392 161,262.5C 165.47,249.424 170.136,236.424 175,223.5C 181.586,212.663 187.919,201.663 194,190.5C 197.72,180.849 199.72,170.849 200,160.5C 207.298,169.39 216.132,176.223 226.5,181C 232.661,183.24 238.661,182.907 244.5,180C 261.101,170.868 277.768,162.035 294.5,153.5 Z M 114.5,362.5 C 117.794,362.259 120.794,363.092 123.5,365C 127.633,368.131 131.466,371.631 135,375.5C 144.729,390.235 154.063,405.235 163,420.5C 169.027,430.549 176.027,439.882 184,448.5C 196.014,465.551 193.514,480.051 176.5,492C 167.934,493.033 159.601,492.033 151.5,489C 137.089,483.863 122.756,478.53 108.5,473C 93.1693,470 77.8359,467 62.5,464C 56.0993,462.697 53.5993,458.863 55,452.5C 57.9527,443.689 60.1193,434.689 61.5,425.5C 60.4995,419.498 59.4995,413.498 58.5,407.5C 58.8608,401.303 62.1941,397.803 68.5,397C 78.6613,395.38 88.3279,392.38 97.5,388C 102.13,382.021 105.964,375.521 109,368.5C 110.36,365.977 112.193,363.977 114.5,362.5 Z M 350.5,371.5 C 352.167,371.5 353.833,371.5 355.5,371.5C 354.918,398.419 367.585,408.253 393.5,401C 405.76,397.076 414.593,389.243 420,377.5C 421.829,379.156 423.163,381.156 424,383.5C 422.597,404.217 431.43,418.384 450.5,426C 453.07,428.067 455.07,430.567 456.5,433.5C 455.018,435.483 453.351,437.316 451.5,439C 434.019,447.572 417.019,456.905 400.5,467C 392.352,474.238 384.019,481.238 375.5,488C 360.558,498.305 349.392,495.139 342,478.5C 341.116,474.887 340.616,471.22 340.5,467.5C 343.063,451.85 345.563,436.183 348,420.5C 348.655,407.824 348.489,395.158 347.5,382.5C 347.667,379.833 347.833,377.167 348,374.5C 348.698,373.309 349.531,372.309 350.5,371.5 Z"/></g>
</svg>
