<?xml version="1.0" encoding="UTF-8"?>
<!DOCTYPE svg PUBLIC "-//W3C//DTD SVG 1.1//EN" "http://www.w3.org/Graphics/SVG/1.1/DTD/svg11.dtd">
<svg xmlns="http://www.w3.org/2000/svg" version="1.1" width="512px" height="512px" style="shape-rendering:geometricPrecision; text-rendering:geometricPrecision; image-rendering:optimizeQuality; fill-rule:evenodd; clip-rule:evenodd" xmlns:xlink="http://www.w3.org/1999/xlink">
<g><path style="opacity:0.957" fill="#fefffe" d="M 228.5,-0.5 C 246.5,-0.5 264.5,-0.5 282.5,-0.5C 310.49,1.66622 337.823,7.49955 364.5,17C 379.961,22.4757 393.128,31.309 404,43.5C 407.137,48.1082 409.47,53.1082 411,58.5C 411.667,130.5 411.667,202.5 411,274.5C 408.552,283.27 404.052,290.77 397.5,297C 380.605,310.2 361.605,319.2 340.5,324C 294.212,334.275 247.546,336.275 200.5,330C 176.021,326.715 152.688,319.715 130.5,309C 120.414,303.244 111.914,295.744 105,286.5C 102.781,282.729 101.115,278.729 100,274.5C 99.3333,202.5 99.3333,130.5 100,58.5C 105.546,43.617 115.379,32.4504 129.5,25C 146.943,16.1126 165.277,9.77931 184.5,6C 199.223,3.20694 213.89,1.04027 228.5,-0.5 Z M 233.5,22.5 C 269.388,20.6319 304.721,24.1319 339.5,33C 353.536,36.8941 366.536,42.8941 378.5,51C 390.85,60.0381 391.517,69.7047 380.5,80C 366.558,89.8773 351.225,96.8773 334.5,101C 279.322,114.172 224.322,113.505 169.5,99C 155.273,95.0525 142.273,88.7192 130.5,80C 122.101,73.7534 120.601,66.2534 126,57.5C 130.526,52.4936 135.693,48.3269 141.5,45C 170.808,31.5059 201.474,24.0059 233.5,22.5 Z M 122.5,103.5 C 150.486,118.836 180.486,128.003 212.5,131C 263.987,137.285 314.321,132.285 363.5,116C 371.941,112.614 379.941,108.447 387.5,103.5C 388.666,114.485 388.832,125.485 388,136.5C 383.833,143.333 378.333,148.833 371.5,153C 347.31,165.395 321.644,172.729 294.5,175C 252.604,179.599 211.27,176.599 170.5,166C 152.986,161.498 137.819,152.998 125,140.5C 124.333,139.167 123.667,137.833 123,136.5C 122.5,125.505 122.333,114.505 122.5,103.5 Z M 122.5,169.5 C 139.672,180.398 158.339,187.898 178.5,192C 229.833,203.333 281.167,203.333 332.5,192C 352.528,187.997 371.028,180.497 388,169.5C 388.667,180.5 388.667,191.5 388,202.5C 383.859,210.641 377.692,216.808 369.5,221C 341.395,234.443 311.729,241.776 280.5,243C 241.082,245.962 202.415,241.962 164.5,231C 149.71,226.694 136.877,219.194 126,208.5C 124.561,206.725 123.561,204.725 123,202.5C 122.5,191.505 122.333,180.505 122.5,169.5 Z M 122.5,236.5 C 140.141,247.218 159.141,254.718 179.5,259C 230.167,270.333 280.833,270.333 331.5,259C 351.725,254.818 370.559,247.318 388,236.5C 388.667,247.5 388.667,258.5 388,269.5C 386.998,273.164 385.164,276.331 382.5,279C 366.507,291.231 348.507,299.231 328.5,303C 274.503,314.087 220.836,312.754 167.5,299C 152.857,294.801 139.69,287.968 128,278.5C 125.558,275.952 123.892,272.952 123,269.5C 122.5,258.505 122.333,247.505 122.5,236.5 Z"/></g>
<g><path style="opacity:0.95" fill="#fefffe" d="M 17.5,355.5 C 21.3076,355.163 24.9743,355.663 28.5,357C 37.4544,368.41 46.2878,379.91 55,391.5C 63.5,380.333 72,369.167 80.5,358C 86.716,354.34 92.5493,354.84 98,359.5C 98.9734,361.392 99.6401,363.392 100,365.5C 100.667,396.167 100.667,426.833 100,457.5C 97.2318,466.431 91.3984,469.264 82.5,466C 80.6217,464.457 79.1217,462.624 78,460.5C 76.7175,441.552 76.0508,422.552 76,403.5C 71.6903,409.311 67.1903,414.977 62.5,420.5C 57.9104,422.918 53.2438,423.084 48.5,421C 43.0634,415.287 38.2301,409.12 34,402.5C 33.9638,422.231 33.2972,441.898 32,461.5C 25.757,469.076 19.0903,469.41 12,462.5C 10.3478,429.252 10.0145,395.919 11,362.5C 12.6941,359.642 14.8607,357.309 17.5,355.5 Z"/></g>
<g><path style="opacity:0.944" fill="#fefffe" d="M 245.5,355.5 C 262.724,353.17 278.057,357.337 291.5,368C 296.939,373.547 299.939,380.214 300.5,388C 297.876,398.585 291.543,401.585 281.5,397C 279.014,393.863 277.181,390.363 276,386.5C 266.005,378.174 254.838,376.34 242.5,381C 230.615,387.346 231.282,392.679 244.5,397C 256.731,399.112 268.731,402.112 280.5,406C 298.938,414.642 304.438,428.475 297,447.5C 284.61,462.972 268.444,469.472 248.5,467C 235.396,465.865 224.563,460.365 216,450.5C 212.887,445.776 211.053,440.61 210.5,435C 212.649,424.923 218.649,421.589 228.5,425C 231.782,428.153 233.948,431.987 235,436.5C 247.163,446.088 259.996,446.922 273.5,439C 277.322,436.448 277.988,433.448 275.5,430C 269.058,426.138 262.058,423.971 254.5,423.5C 254.619,415.036 253.952,414.702 252.5,422.5C 240.365,421.221 229.365,417.054 219.5,410C 208.084,396.975 207.584,383.475 218,369.5C 225.915,362.259 235.082,357.592 245.5,355.5 Z"/></g>
<g><path style="opacity:0.953" fill="#fefffe" d="M 348.5,355.5 C 360.838,355.333 373.171,355.5 385.5,356C 398.667,359.833 407.167,368.333 411,381.5C 411.667,401.167 411.667,420.833 411,440.5C 410.265,442.871 409.432,445.205 408.5,447.5C 414.687,458.068 411.854,464.735 400,467.5C 397.08,467.084 394.414,466.084 392,464.5C 388.934,465.713 385.767,466.547 382.5,467C 371.833,467.667 361.167,467.667 350.5,467C 333.636,463.138 324.136,452.638 322,435.5C 321.082,417.128 321.416,398.795 323,380.5C 326.79,367.209 335.29,358.876 348.5,355.5 Z M 353.5,378.5 C 362.506,378.334 371.506,378.5 380.5,379C 384.333,380.167 386.833,382.667 388,386.5C 388.667,400.167 388.667,413.833 388,427.5C 380.251,419.646 373.251,420.313 367,429.5C 365.491,435.284 366.991,440.117 371.5,444C 363.955,445.126 356.621,444.46 349.5,442C 347.951,440.786 346.785,439.286 346,437.5C 345.333,419.833 345.333,402.167 346,384.5C 348.134,381.847 350.634,379.847 353.5,378.5 Z"/></g>
<g><path style="opacity:0.959" fill="#fefffe" d="M 440.5,355.5 C 448.291,354.146 453.457,357.146 456,364.5C 456.5,391.165 456.667,417.831 456.5,444.5C 468.838,444.333 481.171,444.5 493.5,445C 500.489,449.128 502.322,454.961 499,462.5C 497.048,464.894 494.548,466.394 491.5,467C 475.167,467.667 458.833,467.667 442.5,467C 439.452,466.394 436.952,464.894 435,462.5C 433.348,429.252 433.014,395.919 434,362.5C 435.694,359.642 437.861,357.309 440.5,355.5 Z"/></g>
<g><path style="opacity:0.949" fill="#fefffe" d="M 137.5,511.5 C 134.5,511.5 131.5,511.5 128.5,511.5C 123.376,508.25 121.209,503.583 122,497.5C 128.434,483.466 135.267,469.633 142.5,456C 135.267,442.367 128.434,428.534 122,414.5C 120.572,406.018 124.072,401.018 132.5,399.5C 137.47,399.971 141.303,402.304 144,406.5C 147.578,413.991 151.412,421.324 155.5,428.5C 159.922,420.657 164.088,412.657 168,404.5C 174.388,397.856 180.721,397.856 187,404.5C 188.063,406.916 188.896,409.416 189.5,412C 174.408,443.685 158.908,475.185 143,506.5C 141.27,508.402 139.437,510.069 137.5,511.5 Z"/></g>
</svg>
